<svg xmlns="http://www.w3.org/2000/svg" width="1200" height="900" viewBox="0 0 1200 900">
<rect width="100%" height="100%" fill="#f6fbff"/>
<line x1="600.0" y1="100" x2="600.0" y2="100" stroke="#2e9d57" stroke-width="10" stroke-linecap="round"/>
<line x1="600.0" y1="100" x2="600.0" y2="100" stroke="#d64242" stroke-width="10" stroke-linecap="round"/>
<line x1="699.9" y1="122" x2="600.0" y2="122" stroke="#e6b422" stroke-width="10" stroke-linecap="round"/>
<line x1="600.0" y1="122" x2="500.1" y2="122" stroke="#7d4eb2" stroke-width="10" stroke-linecap="round"/>
<line x1="761.7" y1="144" x2="600.0" y2="144" stroke="#2e9d57" stroke-width="10" stroke-linecap="round"/>
<line x1="600.0" y1="144" x2="438.3" y2="144" stroke="#d64242" stroke-width="10" stroke-linecap="round"/>
<line x1="761.7" y1="166" x2="600.0" y2="166" stroke="#e6b422" stroke-width="10" stroke-linecap="round"/>
<line x1="600.0" y1="166" x2="438.3" y2="166" stroke="#7d4eb2" stroke-width="10" stroke-linecap="round"/>
<line x1="699.9" y1="188" x2="600.0" y2="188" stroke="#2e9d57" stroke-width="10" stroke-linecap="round"/>
<line x1="600.0" y1="188" x2="500.1" y2="188" stroke="#d64242" stroke-width="10" stroke-linecap="round"/>
<line x1="600.0" y1="210" x2="600.0" y2="210" stroke="#e6b422" stroke-width="10" stroke-linecap="round"/>
<line x1="600.0" y1="210" x2="600.0" y2="210" stroke="#7d4eb2" stroke-width="10" stroke-linecap="round"/>
<line x1="500.1" y1="232" x2="600.0" y2="232" stroke="#2e9d57" stroke-width="10" stroke-linecap="round"/>
<line x1="600.0" y1="232" x2="699.9" y2="232" stroke="#d64242" stroke-width="10" stroke-linecap="round"/>
<line x1="438.3" y1="254" x2="600.0" y2="254" stroke="#e6b422" stroke-width="10" stroke-linecap="round"/>
<line x1="600.0" y1="254" x2="761.7" y2="254" stroke="#7d4eb2" stroke-width="10" stroke-linecap="round"/>
<line x1="438.3" y1="276" x2="600.0" y2="276" stroke="#2e9d57" stroke-width="10" stroke-linecap="round"/>
<line x1="600.0" y1="276" x2="761.7" y2="276" stroke="#d64242" stroke-width="10" stroke-linecap="round"/>
<line x1="500.1" y1="298" x2="600.0" y2="298" stroke="#e6b422" stroke-width="10" stroke-linecap="round"/>
<line x1="600.0" y1="298" x2="699.9" y2="298" stroke="#7d4eb2" stroke-width="10" stroke-linecap="round"/>
<line x1="600.0" y1="320" x2="600.0" y2="320" stroke="#2e9d57" stroke-width="10" stroke-linecap="round"/>
<line x1="600.0" y1="320" x2="600.0" y2="320" stroke="#d64242" stroke-width="10" stroke-linecap="round"/>
<line x1="699.9" y1="342" x2="600.0" y2="342" stroke="#e6b422" stroke-width="10" stroke-linecap="round"/>
<line x1="600.0" y1="342" x2="500.1" y2="342" stroke="#7d4eb2" stroke-width="10" stroke-linecap="round"/>
<line x1="761.7" y1="364" x2="600.0" y2="364" stroke="#2e9d57" stroke-width="10" stroke-linecap="round"/>
<line x1="600.0" y1="364" x2="438.3" y2="364" stroke="#d64242" stroke-width="10" stroke-linecap="round"/>
<line x1="761.7" y1="386" x2="600.0" y2="386" stroke="#e6b422" stroke-width="10" stroke-linecap="round"/>
<line x1="600.0" y1="386" x2="438.3" y2="386" stroke="#7d4eb2" stroke-width="10" stroke-linecap="round"/>
<line x1="699.9" y1="408" x2="600.0" y2="408" stroke="#2e9d57" stroke-width="10" stroke-linecap="round"/>
<line x1="600.0" y1="408" x2="500.1" y2="408" stroke="#d64242" stroke-width="10" stroke-linecap="round"/>
<line x1="600.0" y1="430" x2="600.0" y2="430" stroke="#e6b422" stroke-width="10" stroke-linecap="round"/>
<line x1="600.0" y1="430" x2="600.0" y2="430" stroke="#7d4eb2" stroke-width="10" stroke-linecap="round"/>
<line x1="500.1" y1="452" x2="600.0" y2="452" stroke="#2e9d57" stroke-width="10" stroke-linecap="round"/>
<line x1="600.0" y1="452" x2="699.9" y2="452" stroke="#d64242" stroke-width="10" stroke-linecap="round"/>
<line x1="438.3" y1="474" x2="600.0" y2="474" stroke="#e6b422" stroke-width="10" stroke-linecap="round"/>
<line x1="600.0" y1="474" x2="761.7" y2="474" stroke="#7d4eb2" stroke-width="10" stroke-linecap="round"/>
<line x1="438.3" y1="496" x2="600.0" y2="496" stroke="#2e9d57" stroke-width="10" stroke-linecap="round"/>
<line x1="600.0" y1="496" x2="761.7" y2="496" stroke="#d64242" stroke-width="10" stroke-linecap="round"/>
<line x1="500.1" y1="518" x2="600.0" y2="518" stroke="#e6b422" stroke-width="10" stroke-linecap="round"/>
<line x1="600.0" y1="518" x2="699.9" y2="518" stroke="#7d4eb2" stroke-width="10" stroke-linecap="round"/>
<line x1="600.0" y1="540" x2="600.0" y2="540" stroke="#2e9d57" stroke-width="10" stroke-linecap="round"/>
<line x1="600.0" y1="540" x2="600.0" y2="540" stroke="#d64242" stroke-width="10" stroke-linecap="round"/>
<line x1="699.9" y1="562" x2="600.0" y2="562" stroke="#e6b422" stroke-width="10" stroke-linecap="round"/>
<line x1="600.0" y1="562" x2="500.1" y2="562" stroke="#7d4eb2" stroke-width="10" stroke-linecap="round"/>
<line x1="761.7" y1="584" x2="600.0" y2="584" stroke="#2e9d57" stroke-width="10" stroke-linecap="round"/>
<line x1="600.0" y1="584" x2="438.3" y2="584" stroke="#d64242" stroke-width="10" stroke-linecap="round"/>
<line x1="761.7" y1="606" x2="600.0" y2="606" stroke="#e6b422" stroke-width="10" stroke-linecap="round"/>
<line x1="600.0" y1="606" x2="438.3" y2="606" stroke="#7d4eb2" stroke-width="10" stroke-linecap="round"/>
<line x1="699.9" y1="628" x2="600.0" y2="628" stroke="#2e9d57" stroke-width="10" stroke-linecap="round"/>
<line x1="600.0" y1="628" x2="500.1" y2="628" stroke="#d64242" stroke-width="10" stroke-linecap="round"/>
<line x1="600.0" y1="650" x2="600.0" y2="650" stroke="#e6b422" stroke-width="10" stroke-linecap="round"/>
<line x1="600.0" y1="650" x2="600.0" y2="650" stroke="#7d4eb2" stroke-width="10" stroke-linecap="round"/>
<line x1="500.1" y1="672" x2="600.0" y2="672" stroke="#2e9d57" stroke-width="10" stroke-linecap="round"/>
<line x1="600.0" y1="672" x2="699.9" y2="672" stroke="#d64242" stroke-width="10" stroke-linecap="round"/>
<line x1="438.3" y1="694" x2="600.0" y2="694" stroke="#e6b422" stroke-width="10" stroke-linecap="round"/>
<line x1="600.0" y1="694" x2="761.7" y2="694" stroke="#7d4eb2" stroke-width="10" stroke-linecap="round"/>
<line x1="438.3" y1="716" x2="600.0" y2="716" stroke="#2e9d57" stroke-width="10" stroke-linecap="round"/>
<line x1="600.0" y1="716" x2="761.7" y2="716" stroke="#d64242" stroke-width="10" stroke-linecap="round"/>
<line x1="500.1" y1="738" x2="600.0" y2="738" stroke="#e6b422" stroke-width="10" stroke-linecap="round"/>
<line x1="600.0" y1="738" x2="699.9" y2="738" stroke="#7d4eb2" stroke-width="10" stroke-linecap="round"/>
<path d="M 600.0,100.0 L 699.9,122.0 L 761.7,144.0 L 761.7,166.0 L 699.9,188.0 L 600.0,210.0 L 500.1,232.0 L 438.3,254.0 L 438.3,276.0 L 500.1,298.0 L 600.0,320.0 L 699.9,342.0 L 761.7,364.0 L 761.7,386.0 L 699.9,408.0 L 600.0,430.0 L 500.1,452.0 L 438.3,474.0 L 438.3,496.0 L 500.1,518.0 L 600.0,540.0 L 699.9,562.0 L 761.7,584.0 L 761.7,606.0 L 699.9,628.0 L 600.0,650.0 L 500.1,672.0 L 438.3,694.0 L 438.3,716.0 L 500.1,738.0" fill="none" stroke="#2467b2" stroke-width="20" stroke-linecap="round" stroke-linejoin="round"/>
<path d="M 600.0,100.0 L 500.1,122.0 L 438.3,144.0 L 438.3,166.0 L 500.1,188.0 L 600.0,210.0 L 699.9,232.0 L 761.7,254.0 L 761.7,276.0 L 699.9,298.0 L 600.0,320.0 L 500.1,342.0 L 438.3,364.0 L 438.3,386.0 L 500.1,408.0 L 600.0,430.0 L 699.9,452.0 L 761.7,474.0 L 761.7,496.0 L 699.9,518.0 L 600.0,540.0 L 500.1,562.0 L 438.3,584.0 L 438.3,606.0 L 500.1,628.0 L 600.0,650.0 L 699.9,672.0 L 761.7,694.0 L 761.7,716.0 L 699.9,738.0" fill="none" stroke="#2467b2" stroke-width="20" stroke-linecap="round" stroke-linejoin="round"/>
<circle cx="600.0" cy="100" r="10" fill="#5ba3e6" stroke="#1f5d9c" stroke-width="3"/>
<circle cx="699.9" cy="122" r="10" fill="#5ba3e6" stroke="#1f5d9c" stroke-width="3"/>
<circle cx="761.7" cy="144" r="10" fill="#5ba3e6" stroke="#1f5d9c" stroke-width="3"/>
<circle cx="761.7" cy="166" r="10" fill="#5ba3e6" stroke="#1f5d9c" stroke-width="3"/>
<circle cx="699.9" cy="188" r="10" fill="#5ba3e6" stroke="#1f5d9c" stroke-width="3"/>
<circle cx="600.0" cy="210" r="10" fill="#5ba3e6" stroke="#1f5d9c" stroke-width="3"/>
<circle cx="500.1" cy="232" r="10" fill="#5ba3e6" stroke="#1f5d9c" stroke-width="3"/>
<circle cx="438.3" cy="254" r="10" fill="#5ba3e6" stroke="#1f5d9c" stroke-width="3"/>
<circle cx="438.3" cy="276" r="10" fill="#5ba3e6" stroke="#1f5d9c" stroke-width="3"/>
<circle cx="500.1" cy="298" r="10" fill="#5ba3e6" stroke="#1f5d9c" stroke-width="3"/>
<circle cx="600.0" cy="320" r="10" fill="#5ba3e6" stroke="#1f5d9c" stroke-width="3"/>
<circle cx="699.9" cy="342" r="10" fill="#5ba3e6" stroke="#1f5d9c" stroke-width="3"/>
<circle cx="761.7" cy="364" r="10" fill="#5ba3e6" stroke="#1f5d9c" stroke-width="3"/>
<circle cx="761.7" cy="386" r="10" fill="#5ba3e6" stroke="#1f5d9c" stroke-width="3"/>
<circle cx="699.9" cy="408" r="10" fill="#5ba3e6" stroke="#1f5d9c" stroke-width="3"/>
<circle cx="600.0" cy="430" r="10" fill="#5ba3e6" stroke="#1f5d9c" stroke-width="3"/>
<circle cx="500.1" cy="452" r="10" fill="#5ba3e6" stroke="#1f5d9c" stroke-width="3"/>
<circle cx="438.3" cy="474" r="10" fill="#5ba3e6" stroke="#1f5d9c" stroke-width="3"/>
<circle cx="438.3" cy="496" r="10" fill="#5ba3e6" stroke="#1f5d9c" stroke-width="3"/>
<circle cx="500.1" cy="518" r="10" fill="#5ba3e6" stroke="#1f5d9c" stroke-width="3"/>
<circle cx="600.0" cy="540" r="10" fill="#5ba3e6" stroke="#1f5d9c" stroke-width="3"/>
<circle cx="699.9" cy="562" r="10" fill="#5ba3e6" stroke="#1f5d9c" stroke-width="3"/>
<circle cx="761.7" cy="584" r="10" fill="#5ba3e6" stroke="#1f5d9c" stroke-width="3"/>
<circle cx="761.7" cy="606" r="10" fill="#5ba3e6" stroke="#1f5d9c" stroke-width="3"/>
<circle cx="699.9" cy="628" r="10" fill="#5ba3e6" stroke="#1f5d9c" stroke-width="3"/>
<circle cx="600.0" cy="650" r="10" fill="#5ba3e6" stroke="#1f5d9c" stroke-width="3"/>
<circle cx="500.1" cy="672" r="10" fill="#5ba3e6" stroke="#1f5d9c" stroke-width="3"/>
<circle cx="438.3" cy="694" r="10" fill="#5ba3e6" stroke="#1f5d9c" stroke-width="3"/>
<circle cx="438.3" cy="716" r="10" fill="#5ba3e6" stroke="#1f5d9c" stroke-width="3"/>
<circle cx="500.1" cy="738" r="10" fill="#5ba3e6" stroke="#1f5d9c" stroke-width="3"/>
<circle cx="600.0" cy="100" r="10" fill="#5ba3e6" stroke="#1f5d9c" stroke-width="3"/>
<circle cx="500.1" cy="122" r="10" fill="#5ba3e6" stroke="#1f5d9c" stroke-width="3"/>
<circle cx="438.3" cy="144" r="10" fill="#5ba3e6" stroke="#1f5d9c" stroke-width="3"/>
<circle cx="438.3" cy="166" r="10" fill="#5ba3e6" stroke="#1f5d9c" stroke-width="3"/>
<circle cx="500.1" cy="188" r="10" fill="#5ba3e6" stroke="#1f5d9c" stroke-width="3"/>
<circle cx="600.0" cy="210" r="10" fill="#5ba3e6" stroke="#1f5d9c" stroke-width="3"/>
<circle cx="699.9" cy="232" r="10" fill="#5ba3e6" stroke="#1f5d9c" stroke-width="3"/>
<circle cx="761.7" cy="254" r="10" fill="#5ba3e6" stroke="#1f5d9c" stroke-width="3"/>
<circle cx="761.7" cy="276" r="10" fill="#5ba3e6" stroke="#1f5d9c" stroke-width="3"/>
<circle cx="699.9" cy="298" r="10" fill="#5ba3e6" stroke="#1f5d9c" stroke-width="3"/>
<circle cx="600.0" cy="320" r="10" fill="#5ba3e6" stroke="#1f5d9c" stroke-width="3"/>
<circle cx="500.1" cy="342" r="10" fill="#5ba3e6" stroke="#1f5d9c" stroke-width="3"/>
<circle cx="438.3" cy="364" r="10" fill="#5ba3e6" stroke="#1f5d9c" stroke-width="3"/>
<circle cx="438.3" cy="386" r="10" fill="#5ba3e6" stroke="#1f5d9c" stroke-width="3"/>
<circle cx="500.1" cy="408" r="10" fill="#5ba3e6" stroke="#1f5d9c" stroke-width="3"/>
<circle cx="600.0" cy="430" r="10" fill="#5ba3e6" stroke="#1f5d9c" stroke-width="3"/>
<circle cx="699.9" cy="452" r="10" fill="#5ba3e6" stroke="#1f5d9c" stroke-width="3"/>
<circle cx="761.7" cy="474" r="10" fill="#5ba3e6" stroke="#1f5d9c" stroke-width="3"/>
<circle cx="761.7" cy="496" r="10" fill="#5ba3e6" stroke="#1f5d9c" stroke-width="3"/>
<circle cx="699.9" cy="518" r="10" fill="#5ba3e6" stroke="#1f5d9c" stroke-width="3"/>
<circle cx="600.0" cy="540" r="10" fill="#5ba3e6" stroke="#1f5d9c" stroke-width="3"/>
<circle cx="500.1" cy="562" r="10" fill="#5ba3e6" stroke="#1f5d9c" stroke-width="3"/>
<circle cx="438.3" cy="584" r="10" fill="#5ba3e6" stroke="#1f5d9c" stroke-width="3"/>
<circle cx="438.3" cy="606" r="10" fill="#5ba3e6" stroke="#1f5d9c" stroke-width="3"/>
<circle cx="500.1" cy="628" r="10" fill="#5ba3e6" stroke="#1f5d9c" stroke-width="3"/>
<circle cx="600.0" cy="650" r="10" fill="#5ba3e6" stroke="#1f5d9c" stroke-width="3"/>
<circle cx="699.9" cy="672" r="10" fill="#5ba3e6" stroke="#1f5d9c" stroke-width="3"/>
<circle cx="761.7" cy="694" r="10" fill="#5ba3e6" stroke="#1f5d9c" stroke-width="3"/>
<circle cx="761.7" cy="716" r="10" fill="#5ba3e6" stroke="#1f5d9c" stroke-width="3"/>
<circle cx="699.9" cy="738" r="10" fill="#5ba3e6" stroke="#1f5d9c" stroke-width="3"/>
</svg>