<svg xmlns="http://www.w3.org/2000/svg" viewBox="0 0 240 280" width="240" height="280">
  <g id="AST_SH11B05M03_OUTER_BEAKER_01">
    <!-- Outer Glass Beaker Body -->
    <path d="M 30 30 L 25 240 A 15 15 0 0 0 40 255 L 200 255 A 15 15 0 0 0 215 240 L 210 30 Z" 
          fill="#FAF7F0" opacity="0.75" stroke="#B0C4DE" stroke-width="4"/>
    
    <!-- Spout Rim -->
    <path d="M 20 30 Q 30 25 40 30 L 200 30 Q 210 25 220 30" fill="none" stroke="#B0C4DE" stroke-width="4"/>

    <!-- Clear Water Fill -->
    <path d="M 28 90 L 25 240 A 15 15 0 0 0 40 255 L 200 255 A 15 15 0 0 0 212 240 L 209 90 Z" 
          fill="#E1F5FE" opacity="0.75" stroke="#81D4FA" stroke-width="2"/>

    <!-- Graduation Markings (Vạch chia độ) -->
    <line x1="180" y1="90" x2="200" y2="90" stroke="#90A4AE" stroke-width="2"/>
    <line x1="185" y1="120" x2="200" y2="120" stroke="#90A4AE" stroke-width="2"/>
    <line x1="180" y1="150" x2="200" y2="150" stroke="#90A4AE" stroke-width="2"/>
    <line x1="185" y1="180" x2="200" y2="180" stroke="#90A4AE" stroke-width="2"/>
    <line x1="180" y1="210" x2="200" y2="210" stroke="#90A4AE" stroke-width="2"/>
    
    <text x="160" y="94" font-family="sans-serif" font-size="10" fill="#78909C">400ml</text>
    <text x="160" y="154" font-family="sans-serif" font-size="10" fill="#78909C">250ml</text>
  </g>
</svg>
