<svg xmlns="http://www.w3.org/2000/svg" viewBox="0 0 1100 500" role="img" aria-labelledby="title desc">
  <title id="title">Chất xơ hỗ trợ hoạt động đường ruột</title>
  <desc id="desc">Hai trạng thái có cùng hình học ruột già: ít chất xơ và lượng chất xơ phù hợp với khối trong lòng ruột lớn hơn vừa phải, có nước và mũi tên nhu động.</desc>
  <defs>
    <path id="colon" d="M110 110C105 70 160 55 195 82L390 82C430 55 482 78 475 120L475 340C480 385 430 410 394 379L195 379C155 410 105 382 112 338Z"/>
    <marker id="flow" markerWidth="12" markerHeight="12" refX="10" refY="6" orient="auto"><path d="M0 0 12 6 0 12Z" fill="#4E7F92"/></marker>
  </defs>
  <g transform="translate(0 10)">
    <use href="#colon" fill="#F3D8C7" stroke="#A66C5A" stroke-width="25" stroke-linejoin="round"/>
    <path d="M155 230C220 205 330 210 430 232" fill="none" stroke="#B89064" stroke-width="48" stroke-linecap="round"/>
    <path d="M165 230H410" fill="none" stroke="#4E7F92" stroke-width="7" stroke-linecap="round" marker-end="url(#flow)"/>
  </g>
  <g transform="translate(530 10)">
    <use href="#colon" fill="#F3D8C7" stroke="#A66C5A" stroke-width="25" stroke-linejoin="round"/>
    <path d="M150 230C222 196 335 196 438 232" fill="none" stroke="#9D7954" stroke-width="78" stroke-linecap="round"/>
    <g fill="#BFDDE8" stroke="#4E7F92" stroke-width="3">
      <circle cx="210" cy="214" r="10"/><circle cx="275" cy="239" r="9"/><circle cx="340" cy="210" r="11"/><circle cx="394" cy="241" r="8"/>
    </g>
    <path d="M160 230H420" fill="none" stroke="#4E7F92" stroke-width="7" stroke-linecap="round" marker-end="url(#flow)"/>
    <path d="M200 175C255 135 340 137 397 175" fill="none" stroke="#4E7F92" stroke-width="6" stroke-linecap="round" marker-end="url(#flow)"/>
  </g>
</svg>
