<svg xmlns="http://www.w3.org/2000/svg" viewBox="0 0 1500 720" role="img" aria-labelledby="title desc">
  <title id="title">Lớp kép phospholipid có protein màng</title>
  <desc id="desc">Tái sử dụng nguyên lớp kép A14, bổ sung một protein kênh xuyên màng, một thụ thể xuyên màng và một protein bám ở một phía.</desc>
  <image href="SH10-B05-M02-A14.svg" x="0" y="0" width="1500" height="720" preserveAspectRatio="xMidYMid meet"/>
  <g id="channel-protein">
    <path d="M430 125C365 190 370 525 430 590L505 590C550 510 550 205 505 125Z" fill="#9C86C8" stroke="#443A78" stroke-width="8"/>
    <path d="M455 155C430 250 430 470 455 560" fill="none" stroke="#EEF6F8" stroke-width="22" stroke-linecap="round"/>
  </g>
  <g id="receptor-protein">
    <path d="M920 145C875 220 890 500 930 575L1005 575C1035 480 1035 235 995 145Z" fill="#7CA792" stroke="#46685A" stroke-width="8"/>
    <path d="M890 145 845 80M995 145 1045 80" fill="none" stroke="#46685A" stroke-width="13" stroke-linecap="round"/>
    <circle cx="842" cy="74" r="24" fill="#A8C9B8" stroke="#46685A" stroke-width="6"/>
  </g>
  <g id="peripheral-protein">
    <ellipse cx="1225" cy="585" rx="95" ry="50" fill="#E8A24A" stroke="#8A551A" stroke-width="8"/>
  </g>
  <g id="protein-highlights" opacity="0" fill="none" stroke="#CE8A33" stroke-width="7" stroke-dasharray="12 10">
    <rect x="350" y="85" width="220" height="550" rx="40"/><rect x="820" y="45" width="260" height="570" rx="40"/><ellipse cx="1225" cy="585" rx="118" ry="72"/>
  </g>
</svg>
